<?xml version="1.0" standalone="no"?>
<!DOCTYPE svg PUBLIC "-//W3C//DTD SVG 20010904//EN"
 "http://www.w3.org/TR/2001/REC-SVG-20010904/DTD/svg10.dtd">
<svg version="1.0" xmlns="http://www.w3.org/2000/svg"
 width="500.000000pt" height="500.000000pt" viewBox="0 0 500.000000 500.000000"
 preserveAspectRatio="xMidYMid meet">

<g transform="translate(0.000000,500.000000) scale(0.100000,-0.100000)"
fill="#000000" stroke="none">
<path d="M2360 4929 c-133 -7 -155 -9 -324 -40 -95 -18 -266 -64 -421 -115
-148 -49 -450 -228 -655 -388 -340 -266 -649 -719 -776 -1136 -85 -281 -117
-482 -116 -745 0 -267 25 -432 108 -717 51 -179 84 -262 152 -392 169 -321
389 -589 657 -800 179 -141 441 -297 605 -359 87 -33 327 -102 420 -121 198
-39 310 -48 545 -43 306 7 452 32 760 134 396 131 813 431 1088 780 279 356
435 722 503 1178 22 149 29 419 15 560 -32 314 -131 658 -254 885 -113 209
-271 428 -429 595 -46 49 -139 132 -208 185 -283 221 -519 348 -795 429 -323
95 -569 126 -875 110z m-370 -1164 c17 -19 20 -25 9 -29 -114 -33 -470 -172
-529 -206 -8 -5 -40 -23 -70 -41 -52 -30 -180 -118 -180 -123 0 -2 73 28 163
66 168 72 238 94 468 147 293 67 607 94 839 72 231 -22 296 -34 650 -117 62
-15 316 -112 403 -155 l42 -20 -35 30 c-28 24 -145 99 -220 141 -45 25 -265
115 -393 161 l-148 53 25 25 26 25 102 -11 c206 -24 349 -70 602 -194 208
-103 192 -86 297 -304 183 -380 303 -749 344 -1065 30 -228 45 -384 45 -476
l0 -90 -67 -67 c-106 -104 -140 -126 -343 -231 -158 -81 -336 -129 -530 -143
l-86 -6 -70 84 c-39 46 -87 105 -107 130 l-36 45 68 22 c94 31 237 102 308
154 89 66 161 128 179 156 l17 25 -34 -20 c-267 -160 -542 -268 -799 -313
-155 -28 -538 -39 -711 -21 -322 34 -628 142 -948 334 l-34 20 17 -25 c18 -28
89 -90 178 -155 71 -52 187 -111 295 -149 l82 -29 -37 -45 c-20 -25 -67 -82
-105 -127 -68 -82 -70 -83 -116 -83 -68 0 -232 27 -341 55 -91 24 -252 97
-399 181 -34 20 -103 75 -152 122 l-89 84 0 92 c0 92 15 248 45 476 41 316
162 689 345 1067 104 215 88 199 296 302 234 115 377 164 557 190 116 16 151
14 177 -14z"/>
<path d="M1803 2640 c-79 -26 -161 -99 -199 -177 -39 -78 -44 -186 -14 -266
31 -83 86 -146 161 -187 60 -33 70 -35 154 -35 108 0 164 23 235 95 65 64 92
127 98 225 5 104 -19 173 -88 248 -91 99 -225 137 -347 97z"/>
<path d="M3027 2649 c-107 -25 -209 -114 -247 -217 -29 -76 -24 -194 11 -267
30 -63 100 -134 164 -165 42 -21 65 -25 140 -25 84 0 94 2 154 35 75 41 130
104 161 187 30 80 25 188 -14 266 -39 81 -120 151 -203 177 -69 21 -105 23
-166 9z"/>
</g>
</svg>
