<?xml version="1.0" standalone="no"?>
<!DOCTYPE svg PUBLIC "-//W3C//DTD SVG 20010904//EN"
 "http://www.w3.org/TR/2001/REC-SVG-20010904/DTD/svg10.dtd">
<svg version="1.0" xmlns="http://www.w3.org/2000/svg"
 width="500.000000pt" height="500.000000pt" viewBox="0 0 500.000000 500.000000"
 preserveAspectRatio="xMidYMid meet">

<g transform="translate(0.000000,500.000000) scale(0.100000,-0.100000)"
fill="#000000" stroke="none">
<path d="M2188 4975 c-366 -50 -734 -183 -1025 -371 -94 -60 -283 -206 -387
-297 -83 -74 -250 -280 -356 -440 -252 -378 -392 -820 -407 -1278 -12 -355 39
-651 172 -1004 232 -617 771 -1161 1383 -1394 324 -124 598 -175 947 -174 318
0 583 49 882 161 476 180 890 517 1196 975 178 265 316 640 373 1008 22 140
25 522 5 644 -84 528 -222 869 -495 1219 -225 289 -510 528 -830 696 -221 115
-572 222 -846 256 -142 17 -479 17 -612 -1z m-299 -1258 c5 -13 39 -86 76
-162 37 -77 86 -183 110 -235 24 -52 74 -160 112 -240 38 -80 80 -172 93 -205
12 -33 58 -135 101 -227 44 -92 79 -170 79 -173 0 -3 28 -62 61 -132 l62 -127
22 45 c31 65 95 227 95 242 0 6 20 59 44 117 171 413 227 550 300 735 46 116
98 249 116 298 l33 87 433 0 434 0 0 -28 c0 -27 -51 -83 -227 -250 l-43 -40 0
-922 0 -923 68 -65 c183 -175 202 -196 200 -222 l-3 -25 -612 -3 -613 -2 0 27
c-1 23 25 52 140 163 l141 135 -3 719 -3 719 -147 -364 c-172 -427 -235 -586
-271 -689 -14 -41 -69 -181 -122 -310 -53 -129 -110 -270 -127 -312 l-31 -78
-52 0 c-49 0 -53 2 -60 28 -3 15 -31 78 -61 141 -30 63 -87 184 -126 270 -39
86 -77 165 -84 176 -20 32 -154 331 -154 343 0 6 -18 46 -39 89 -21 43 -59
123 -84 178 -44 97 -168 360 -226 480 l-30 60 0 -613 c-1 -513 1 -618 13 -647
13 -30 110 -150 311 -385 42 -50 55 -72 55 -97 l0 -33 -465 0 -465 0 0 31 c0
31 18 55 262 350 48 58 92 118 98 133 14 38 14 1464 -1 1503 -11 29 -133 184
-211 267 -26 28 -48 54 -48 57 0 3 -13 23 -30 44 -18 22 -30 50 -30 66 l0 29
450 0 450 0 9 -23z"/>
</g>
</svg>
