<?xml version="1.0" standalone="no"?>
<!DOCTYPE svg PUBLIC "-//W3C//DTD SVG 20010904//EN"
 "http://www.w3.org/TR/2001/REC-SVG-20010904/DTD/svg10.dtd">
<svg version="1.0" xmlns="http://www.w3.org/2000/svg"
 width="500.000000pt" height="500.000000pt" viewBox="0 0 500.000000 500.000000"
 preserveAspectRatio="xMidYMid meet">

<g transform="translate(0.000000,500.000000) scale(0.100000,-0.100000)"
fill="#000000" stroke="none">
<path d="M2290 4979 c-359 -19 -817 -170 -1117 -368 -221 -145 -444 -340 -570
-496 -306 -383 -456 -695 -547 -1145 -72 -359 -51 -816 54 -1172 60 -199 167
-444 263 -597 178 -286 496 -610 778 -794 301 -196 693 -336 1064 -378 157
-19 464 -16 610 5 353 50 713 180 1000 362 301 191 603 493 792 792 166 264
285 589 344 948 25 153 30 506 10 664 -35 262 -135 599 -242 814 -140 279
-374 581 -594 765 -250 208 -473 349 -671 422 -323 118 -530 165 -789 179
-185 10 -187 10 -385 -1z m735 -1201 c25 -159 101 -324 188 -410 86 -85 274
-168 380 -168 l27 0 0 -217 0 -216 -97 6 c-149 10 -278 52 -420 136 -38 23
-71 41 -74 41 -2 0 -5 -199 -5 -443 -2 -474 -8 -563 -50 -692 -54 -166 -129
-284 -254 -401 -111 -104 -202 -157 -347 -200 -111 -34 -278 -38 -388 -10
-193 50 -418 224 -499 385 -28 56 -70 182 -92 276 -23 100 -21 280 4 370 49
173 93 254 201 368 55 58 93 86 183 136 148 82 267 116 471 134 l37 3 0 -223
0 -223 -27 -6 c-83 -18 -214 -59 -253 -78 -105 -53 -125 -71 -166 -152 -37
-74 -39 -81 -39 -173 0 -93 2 -99 40 -175 46 -91 92 -135 185 -179 90 -43 207
-49 295 -16 81 30 156 102 200 193 65 134 66 149 65 1101 -1 468 -1 856 -1
863 1 9 51 12 215 12 l214 0 7 -42z"/>
</g>
</svg>
