<?xml version="1.0" standalone="no"?>
<!DOCTYPE svg PUBLIC "-//W3C//DTD SVG 20010904//EN"
 "http://www.w3.org/TR/2001/REC-SVG-20010904/DTD/svg10.dtd">
<svg version="1.0" xmlns="http://www.w3.org/2000/svg"
 width="500.000000pt" height="500.000000pt" viewBox="0 0 500.000000 500.000000"
 preserveAspectRatio="xMidYMid meet">

<g transform="translate(0.000000,500.000000) scale(0.100000,-0.100000)"
fill="#000000" stroke="none">
<path d="M2250 4983 c-108 -12 -300 -49 -404 -80 -282 -81 -490 -173 -686
-301 -102 -67 -336 -248 -414 -321 -83 -78 -292 -349 -382 -496 -81 -133 -107
-185 -164 -330 -131 -330 -177 -548 -187 -870 -11 -382 35 -646 179 -1025 104
-275 283 -548 523 -798 103 -107 313 -281 445 -367 116 -76 303 -169 437 -218
310 -114 501 -152 828 -163 353 -13 647 37 987 167 265 101 439 207 708 430
288 238 563 617 688 949 129 342 182 614 182 941 0 352 -42 570 -187 964 -127
343 -436 745 -773 1005 -274 212 -499 325 -843 424 -256 75 -421 97 -702 94
-110 0 -216 -3 -235 -5z m1388 -983 l362 0 0 -951 0 -950 -406 -405 -406 -404
-307 0 -306 0 -205 -205 -205 -205 -207 0 -208 0 0 205 0 205 -375 0 -375 0 0
1088 0 1088 29 85 c16 46 39 109 51 139 12 30 40 104 61 165 22 60 47 120 55
133 l15 23 1032 -6 c568 -3 1195 -5 1395 -5z"/>
<path d="M1491 3717 c-13 -16 -16 -1914 -3 -1934 6 -10 83 -13 307 -15 l300
-3 0 -198 c0 -108 3 -197 7 -197 4 0 96 90 205 200 l198 200 373 0 373 0 234
236 235 236 0 744 0 744 -1109 0 c-914 0 -1110 -2 -1120 -13z m1009 -937 l0
-410 -135 0 -135 0 0 410 0 410 135 0 135 0 0 -410z m750 0 l0 -410 -141 0
-140 0 2 403 c1 221 4 405 6 410 2 4 65 7 139 7 l134 0 0 -410z"/>
</g>
</svg>
